<svg width="60" height="68" viewBox="0 0 60 68" fill="none" xmlns="http://www.w3.org/2000/svg">
<g filter="url(#filter0_d_85_110)">
<path fill-rule="evenodd" clip-rule="evenodd" d="M4.33272 28.6057C5.69988 44.2563 19.49 57.6273 36.1891 59.4938C38.3181 59.7318 40.1247 59.9591 40.2036 59.9989C40.2826 60.0387 40.3472 58.9911 40.3472 57.6708V55.2703L36.7081 54.9441C26.8074 54.0568 17.3139 47.8575 12.5601 39.1753C10.46 35.3398 8.78454 29.7763 8.76944 26.5881C8.76123 24.8566 8.76944 24.7968 6.38047 24.7968H4L4.33272 28.6057ZM14.9305 28.1553C16.5476 38.1818 23.9554 46.1063 34.1819 48.7495C35.8356 49.177 38.4506 49.5848 39.3192 49.6048C40.452 49.6308 40.4449 49.5135 40.3855 48.5356C40.3685 48.2554 40.3472 47.9046 40.3472 47.4663V45.3333L37.045 44.7046C35.2288 44.3588 32.4506 43.4949 30.8713 42.7849C27.4422 41.2431 22.9032 36.7395 21.3229 33.3107C18.0229 26.1512 19.0653 18.0921 24.1144 11.7273C26.8425 8.28845 34.5933 4.40378 38.7266 4.40378C40.2344 4.40378 40.3472 4.25037 40.3472 2.19912C40.3472 0.017903 40.3243 -0.00547121 38.1936 0.000431756C37.0091 0.00371339 34.8514 0.352646 33.3986 0.775838C20.7568 4.45835 12.9704 16.002 14.9305 28.1553Z" fill="black"/>
<path d="M26.6178 31.1202C28.3616 34.4712 31.8763 37.4791 36.7349 38.8571C38.7202 39.4201 40.2603 39.5859 40.3472 39.4082C40.3472 38.0303 40.3472 37.1803 40.3472 31.962V24.2457H48.1736H56L55.6098 21.9032C54.1192 12.9555 43.129 7.35069 34.5047 11.14C28.3858 13.8285 25.2466 18.4727 25.2466 24.8369C25.2466 27.5795 25.587 29.1394 26.6178 31.1202Z" fill="black"/>
<path d="M6.38086 25.2969C6.98428 25.2969 7.40561 25.3012 7.71191 25.3311C8.0294 25.362 8.13047 25.4137 8.16113 25.4375C8.16541 25.4408 8.20565 25.4628 8.23438 25.6523C8.2653 25.8566 8.2674 26.1415 8.26953 26.5908C8.27747 28.254 8.71502 30.4944 9.4043 32.7832C10.0955 35.0785 11.0515 37.4614 12.1211 39.415C16.9554 48.2442 26.5973 54.5402 36.6631 55.4424L39.8477 55.7275V57.6709C39.8477 58.3244 39.8309 58.9058 39.8057 59.3145C39.8032 59.3536 39.7994 59.3907 39.7969 59.4258C39.5923 59.3974 39.3312 59.3624 39.0273 59.3242C38.297 59.2323 37.311 59.1162 36.2451 58.9971C19.7589 57.1544 6.17563 43.9525 4.83105 28.5625L4.5459 25.2969H6.38086ZM38.1953 0.5C38.739 0.498495 39.1059 0.500099 39.3711 0.53125C39.6376 0.562599 39.6976 0.615305 39.7119 0.629883C39.7285 0.646823 39.7816 0.714061 39.8135 0.991211C39.8449 1.2652 39.8477 1.64323 39.8477 2.19922C39.8477 2.7144 39.8401 3.08163 39.8096 3.35254C39.7783 3.63018 39.7284 3.73467 39.6992 3.77441C39.6871 3.79087 39.6604 3.82779 39.5137 3.8584C39.3485 3.89281 39.1079 3.90332 38.7266 3.90332C36.5424 3.90334 33.4873 4.91709 30.6699 6.3291C27.8489 7.74299 25.1531 9.6138 23.7227 11.417C18.5611 17.9237 17.4875 26.1824 20.8691 33.5195C21.6936 35.3083 23.2677 37.3401 25.0518 39.1104C26.8357 40.8804 28.8763 42.4365 30.666 43.2412C32.2833 43.9683 35.0991 44.8436 36.9512 45.1963L39.8477 45.7461V47.4658C39.8477 47.9203 39.8697 48.2845 39.8867 48.5654C39.9023 48.8222 39.9108 48.9785 39.9043 49.0898H39.9033L39.9014 49.0908C39.7895 49.1069 39.6152 49.111 39.3311 49.1045C38.515 49.0857 35.94 48.6878 34.3066 48.2656C24.2627 45.6695 17.0078 37.8964 15.4238 28.0762C13.508 16.1977 21.1129 4.8754 33.5381 1.25586C34.9577 0.842334 37.0686 0.503122 38.1953 0.5ZM34.7061 11.5977C38.8613 9.77202 43.6068 10.2026 47.5049 12.1904C51.4038 14.1788 54.4018 17.6968 55.1162 21.9854L55.4102 23.7461H39.8477V38.9668C39.7081 38.9585 39.5321 38.9442 39.3223 38.915C38.7047 38.8291 37.8455 38.6523 36.8711 38.376C32.1338 37.0324 28.7365 34.1082 27.0615 30.8896C26.0754 28.9946 25.7471 27.5172 25.7471 24.8369C25.7471 21.7399 26.509 19.0882 27.9951 16.8896C29.4822 14.6897 31.7156 12.9116 34.7061 11.5977Z" stroke="black"/>
</g>
<defs>
<filter id="filter0_d_85_110" x="0" y="0" width="60" height="68" filterUnits="userSpaceOnUse" color-interpolation-filters="sRGB">
<feFlood flood-opacity="0" result="BackgroundImageFix"/>
<feColorMatrix in="SourceAlpha" type="matrix" values="0 0 0 0 0 0 0 0 0 0 0 0 0 0 0 0 0 0 127 0" result="hardAlpha"/>
<feOffset dy="4"/>
<feGaussianBlur stdDeviation="2"/>
<feComposite in2="hardAlpha" operator="out"/>
<feColorMatrix type="matrix" values="0 0 0 0 0 0 0 0 0 0 0 0 0 0 0 0 0 0 0.25 0"/>
<feBlend mode="normal" in2="BackgroundImageFix" result="effect1_dropShadow_85_110"/>
<feBlend mode="normal" in="SourceGraphic" in2="effect1_dropShadow_85_110" result="shape"/>
</filter>
</defs>
</svg>
