<svg width="42" height="46" viewBox="0 0 42 46" fill="none" xmlns="http://www.w3.org/2000/svg">
<g filter="url(#filter0_d_585_132)">
<path fill-rule="evenodd" clip-rule="evenodd" d="M4.21755 18.1169C5.11146 28.029 14.1281 36.4973 25.0467 37.6794C26.4388 37.8301 27.62 37.9741 27.6716 37.9993C27.7232 38.0245 27.7655 37.361 27.7655 36.5248V35.0045L25.3861 34.7979C18.9125 34.236 12.7053 30.3097 9.59696 24.811C8.22383 22.3819 7.12835 18.8583 7.11848 16.8391C7.11311 15.7425 7.11848 15.7047 5.55646 15.7047H4L4.21755 18.1169ZM11.1468 17.8317C12.2042 24.1818 17.0477 29.2007 23.7343 30.8747C24.8156 31.1454 26.5254 31.4037 27.0933 31.4163C27.834 31.4328 27.8293 31.3585 27.7905 30.7392C27.7794 30.5617 27.7655 30.3396 27.7655 30.062V28.7111L25.6064 28.3129C24.4188 28.0939 22.6023 27.5468 21.5697 27.0971C19.3276 26.1206 16.3598 23.2683 15.3265 21.0968C13.1688 16.5624 13.8504 11.4583 17.1517 7.42729C18.9354 5.24935 24.0033 2.78906 26.7059 2.78906C27.6918 2.78906 27.7655 2.6919 27.7655 1.39278C27.7655 0.0113386 27.7505 -0.0034651 26.3574 0.000273446C25.5829 0.00235181 24.172 0.223343 23.2221 0.491364C14.9564 2.82362 9.86523 10.1346 11.1468 17.8317Z" fill="white"/>
<path d="M18.7886 19.7095C19.9288 21.8318 22.2268 23.7368 25.4036 24.6095C26.7017 24.9661 27.7086 25.0711 27.7655 24.9585C27.7655 24.0859 27.7655 23.5475 27.7655 20.2426V15.3556H32.8827H38L37.7449 13.872C36.7703 8.20517 29.5844 4.65544 23.9454 7.05533C19.9445 8.75806 17.892 11.6994 17.892 15.73C17.892 17.467 18.1146 18.455 18.7886 19.7095Z" fill="white"/>
<path d="M5.55664 16.2051C5.95327 16.2051 6.22094 16.2076 6.41211 16.2256C6.50594 16.2345 6.56179 16.2458 6.59277 16.2539C6.59404 16.2604 6.5963 16.2677 6.59766 16.2764C6.61509 16.3879 6.61674 16.5507 6.61816 16.8418C6.62349 17.9226 6.91611 19.3621 7.36914 20.8193C7.8244 22.2836 8.45502 23.8057 9.16211 25.0566C12.3543 30.7038 18.7107 34.7202 25.3428 35.2959L27.2656 35.4629V36.5244C27.2656 36.8734 27.2563 37.1885 27.2441 37.4307C27.1477 37.4183 27.0394 37.404 26.9219 37.3896C26.4434 37.3313 25.798 37.2581 25.1006 37.1826C14.3836 36.0223 5.58543 27.7131 4.71582 18.0723L4.54688 16.2051H5.55664ZM26.3584 0.5C26.7174 0.499037 26.9465 0.500155 27.1084 0.518555C27.1648 0.524974 27.2008 0.534281 27.2227 0.540039C27.2283 0.561112 27.2386 0.595485 27.2451 0.650391C27.264 0.810012 27.2656 1.03631 27.2656 1.39258C27.2656 1.72016 27.2607 1.94264 27.2422 2.10156C27.2325 2.18503 27.2196 2.23225 27.2119 2.25684C27.2055 2.25848 27.198 2.26174 27.1885 2.26367C27.0987 2.2818 26.9569 2.28906 26.7061 2.28906C25.2409 2.28906 23.2161 2.94374 21.3662 3.8418C19.5138 4.74108 17.7242 5.93872 16.7646 7.11035C13.3466 11.2839 12.6303 16.5942 14.875 21.3115C15.4274 22.4724 16.4739 23.7764 17.6484 24.9053C18.8235 26.0346 20.1748 27.0351 21.3701 27.5557C22.4401 28.0216 24.2933 28.5793 25.5156 28.8047L27.2656 29.127V30.0615C27.2656 30.356 27.2798 30.5922 27.291 30.7705C27.2945 30.8267 27.2976 30.8745 27.2998 30.917C27.2454 30.9178 27.1812 30.9177 27.1045 30.916C26.5875 30.9045 24.9169 30.6554 23.8555 30.3896C17.3446 28.7595 12.6615 23.8863 11.6396 17.75C10.4061 10.3413 15.3001 3.24636 23.3584 0.972656C24.2758 0.713867 25.6399 0.501985 26.3584 0.5ZM24.1416 7.51562C26.8084 6.38077 29.8615 6.64605 32.373 7.88672C34.8861 9.12816 36.7975 11.3146 37.252 13.957L37.4062 14.8555H27.2656V24.4805C27.2201 24.4755 27.1704 24.472 27.1172 24.4648C26.7218 24.4115 26.1673 24.3004 25.5361 24.127C22.4764 23.2864 20.2979 21.4614 19.2295 19.4727C18.6024 18.3053 18.3916 17.4026 18.3916 15.7305C18.3916 13.8036 18.8809 12.163 19.8281 10.8057C20.777 9.44596 22.2084 8.33836 24.1416 7.51562Z" stroke="black" stroke-opacity="0.5"/>
</g>
<defs>
<filter id="filter0_d_585_132" x="0" y="0" width="42" height="46" filterUnits="userSpaceOnUse" color-interpolation-filters="sRGB">
<feFlood flood-opacity="0" result="BackgroundImageFix"/>
<feColorMatrix in="SourceAlpha" type="matrix" values="0 0 0 0 0 0 0 0 0 0 0 0 0 0 0 0 0 0 127 0" result="hardAlpha"/>
<feOffset dy="4"/>
<feGaussianBlur stdDeviation="2"/>
<feComposite in2="hardAlpha" operator="out"/>
<feColorMatrix type="matrix" values="0 0 0 0 0 0 0 0 0 0 0 0 0 0 0 0 0 0 0.25 0"/>
<feBlend mode="normal" in2="BackgroundImageFix" result="effect1_dropShadow_585_132"/>
<feBlend mode="normal" in="SourceGraphic" in2="effect1_dropShadow_585_132" result="shape"/>
</filter>
</defs>
</svg>
