<svg width="36" height="36" viewBox="0 0 36 36" fill="none" xmlns="http://www.w3.org/2000/svg">
<path d="M13.95 16.3874C12.9 15.3374 12.375 13.9874 12.375 12.3374C12.375 10.6874 12.9 9.3374 13.95 8.2874C15 7.2374 16.35 6.7124 18 6.7124C19.65 6.7124 21 7.2374 22.05 8.2874C23.1 9.3374 23.625 10.6874 23.625 12.3374C23.625 13.9874 23.1 15.3374 22.05 16.3874C21 17.4374 19.65 17.9624 18 17.9624C16.35 17.9624 15 17.4374 13.95 16.3874ZM6 29.9999V26.4749C6 25.5249 6.2375 24.7124 6.7125 24.0374C7.1875 23.3624 7.8 22.8499 8.55 22.4999C10.225 21.7499 11.8313 21.1874 13.3688 20.8124C14.9063 20.4374 16.45 20.2499 18 20.2499C19.55 20.2499 21.0875 20.4437 22.6125 20.8312C24.1375 21.2187 25.7375 21.7749 27.4125 22.4999C28.1875 22.8499 28.8125 23.3624 29.2875 24.0374C29.7625 24.7124 30 25.5249 30 26.4749V29.9999H6ZM8.25 27.7499H27.75V26.4749C27.75 26.0749 27.6313 25.6937 27.3938 25.3312C27.1563 24.9687 26.8625 24.6999 26.5125 24.5249C24.9125 23.7499 23.45 23.2187 22.125 22.9312C20.8 22.6437 19.425 22.4999 18 22.4999C16.575 22.4999 15.1875 22.6437 13.8375 22.9312C12.4875 23.2187 11.025 23.7499 9.45 24.5249C9.1 24.6999 8.8125 24.9687 8.5875 25.3312C8.3625 25.6937 8.25 26.0749 8.25 26.4749V27.7499ZM20.4188 14.7562C21.0563 14.1187 21.375 13.3124 21.375 12.3374C21.375 11.3624 21.0563 10.5562 20.4188 9.91865C19.7813 9.28115 18.975 8.9624 18 8.9624C17.025 8.9624 16.2188 9.28115 15.5813 9.91865C14.9438 10.5562 14.625 11.3624 14.625 12.3374C14.625 13.3124 14.9438 14.1187 15.5813 14.7562C16.2188 15.3937 17.025 15.7124 18 15.7124C18.975 15.7124 19.7813 15.3937 20.4188 14.7562Z" fill="white"/>

</svg>
