<svg width="36" height="36" viewBox="0 0 36 36" fill="none" xmlns="http://www.w3.org/2000/svg">
<path d="M6 20.625V18.375H17.25V20.625H6ZM6 14.4375V12.1875H23.625V14.4375H6ZM6 8.25V6H23.625V8.25H6ZM19.5 30V25.3875L27.7875 17.1375C28.0125 16.9125 28.2625 16.75 28.5375 16.65C28.8125 16.55 29.0875 16.5 29.3625 16.5C29.6625 16.5 29.95 16.5563 30.225 16.6688C30.5 16.7813 30.75 16.95 30.975 17.175L32.3625 18.5625C32.5875 18.7875 32.75 19.0375 32.85 19.3125C32.95 19.5875 33 19.8625 33 20.1375C33 20.4125 32.9438 20.6938 32.8313 20.9813C32.7188 21.2688 32.5511 21.525 32.3284 21.75L24.1125 30H19.5ZM21.75 27.75H23.175L27.7125 23.175L27.0375 22.4625L26.325 21.7875L21.75 26.325V27.75ZM27.0375 22.4625L26.325 21.7875L27.7125 23.175L27.0375 22.4625Z" fill="white"/>
</svg>
